<svg width="201" height="178" viewBox="0 0 201 178" fill="none" xmlns="http://www.w3.org/2000/svg">
<path d="M143.5 89C143.5 113.245 138.195 135.071 129.741 150.746C121.233 166.521 109.897 175.5 98 175.5C86.1035 175.5 74.7674 166.521 66.2593 150.746C57.8055 135.071 52.5 113.245 52.5 89C52.5 64.7548 57.8055 42.9289 66.2593 27.2542C74.7674 11.4786 86.1035 2.5 98 2.5C109.897 2.5 121.233 11.4786 129.741 27.2542C138.195 42.9289 143.5 64.7548 143.5 89Z" stroke="#0673E4" stroke-width="5"/>
<path d="M118.364 56.2286C140.412 67.4286 158.226 81.5271 169.235 95.1658C180.408 109.007 183.94 121.503 179.586 130.074C175.232 138.645 163.058 143.162 145.291 142.303C127.784 141.456 105.892 135.384 83.8436 124.184C61.7955 112.985 43.9809 98.8859 32.9722 85.2473C21.7999 71.4061 18.2673 58.9102 22.6212 50.3391C26.9752 41.768 39.1499 37.2511 56.9167 38.1103C74.4235 38.957 96.3157 45.0286 118.364 56.2286Z" stroke="#0673E4" stroke-width="5"/>
<path d="M82.3667 56.0732C104.554 44.8208 126.621 38.8054 144.297 38.0898C162.216 37.3644 174.591 42.0698 179.081 50.9227C183.571 59.7756 180.055 72.5404 168.883 86.568C157.862 100.406 139.971 114.655 117.783 125.908C95.5952 137.16 73.5283 143.175 55.8523 143.891C37.934 144.616 25.5582 139.911 21.0685 131.058C16.5788 122.205 20.0947 109.44 31.2668 95.4127C42.2879 81.5747 60.179 67.3255 82.3667 56.0732Z" stroke="#0673E4" stroke-width="5"/>
<circle cx="98" cy="92" r="12" fill="#0572E4"/>
<circle cx="98" cy="92" r="5" fill="#6FB5FD"/>
</svg>
